<?xml version="1.0" encoding="utf-8" standalone="no"?>
<!DOCTYPE svg PUBLIC "-//W3C//DTD SVG 1.1//EN"
  "http://www.w3.org/Graphics/SVG/1.1/DTD/svg11.dtd">
<svg xmlns:xlink="http://www.w3.org/1999/xlink" width="720pt" height="576pt" viewBox="0 0 720 576" xmlns="http://www.w3.org/2000/svg" version="1.1">
 <metadata>
  <rdf:RDF xmlns:dc="http://purl.org/dc/elements/1.1/" xmlns:cc="http://creativecommons.org/ns#" xmlns:rdf="http://www.w3.org/1999/02/22-rdf-syntax-ns#">
   <cc:Work>
    <dc:type rdf:resource="http://purl.org/dc/dcmitype/StillImage"/>
    <dc:date>2024-07-03T19:16:03.929571</dc:date>
    <dc:format>image/svg+xml</dc:format>
    <dc:creator>
     <cc:Agent>
      <dc:title>Matplotlib v3.8.4, https://matplotlib.org/</dc:title>
     </cc:Agent>
    </dc:creator>
   </cc:Work>
  </rdf:RDF>
 </metadata>
 <defs>
  <style type="text/css">*{stroke-linejoin: round; stroke-linecap: butt}</style>
 </defs>
 <g id="figure_1">
  <g id="patch_1">
   <path d="M 0 576 
L 720 576 
L 720 0 
L 0 0 
z
" style="fill: #ffffff"/>
  </g>
  <g id="axes_1">
   <g id="patch_2">
    <path d="M 50.366 248.56 
L 354.6 248.56 
L 354.6 28.32 
L 50.366 28.32 
z
" style="fill: #ffffff"/>
   </g>
   <g id="matplotlib.axis_1">
    <g id="xtick_1">
     <g id="line2d_1">
      <defs>
       <path id="mb0e43a8833" d="M 0 0 
L 0 3.5 
" style="stroke: #000000; stroke-width: 0.8"/>
      </defs>
      <g>
       <use xlink:href="#mb0e43a8833" x="67.267889" y="248.56" style="stroke: #000000; stroke-width: 0.8"/>
      </g>
     </g>
     <g id="text_1">
      <!-- −8 -->
      <g transform="translate(59.896795 263.158437) scale(0.1 -0.1)">
       <defs>
        <path id="DejaVuSans-2212" d="M 678 2272 
L 4684 2272 
L 4684 1741 
L 678 1741 
L 678 2272 
z
" transform="scale(0.015625)"/>
        <path id="DejaVuSans-38" d="M 2034 2216 
Q 1584 2216 1326 1975 
Q 1069 1734 1069 1313 
Q 1069 891 1326 650 
Q 1584 409 2034 409 
Q 2484 409 2743 651 
Q 3003 894 3003 1313 
Q 3003 1734 2745 1975 
Q 2488 2216 2034 2216 
z
M 1403 2484 
Q 997 2584 770 2862 
Q 544 3141 544 3541 
Q 544 4100 942 4425 
Q 1341 4750 2034 4750 
Q 2731 4750 3128 4425 
Q 3525 4100 3525 3541 
Q 3525 3141 3298 2862 
Q 3072 2584 2669 2484 
Q 3125 2378 3379 2068 
Q 3634 1759 3634 1313 
Q 3634 634 3220 271 
Q 2806 -91 2034 -91 
Q 1263 -91 848 271 
Q 434 634 434 1313 
Q 434 1759 690 2068 
Q 947 2378 1403 2484 
z
M 1172 3481 
Q 1172 3119 1398 2916 
Q 1625 2713 2034 2713 
Q 2441 2713 2670 2916 
Q 2900 3119 2900 3481 
Q 2900 3844 2670 4047 
Q 2441 4250 2034 4250 
Q 1625 4250 1398 4047 
Q 1172 3844 1172 3481 
z
" transform="scale(0.015625)"/>
       </defs>
       <use xlink:href="#DejaVuSans-2212"/>
       <use xlink:href="#DejaVuSans-38" x="83.789062"/>
      </g>
     </g>
    </g>
    <g id="xtick_2">
     <g id="line2d_2">
      <g>
       <use xlink:href="#mb0e43a8833" x="101.071667" y="248.56" style="stroke: #000000; stroke-width: 0.8"/>
      </g>
     </g>
     <g id="text_2">
      <!-- −6 -->
      <g transform="translate(93.700573 263.158437) scale(0.1 -0.1)">
       <defs>
        <path id="DejaVuSans-36" d="M 2113 2584 
Q 1688 2584 1439 2293 
Q 1191 2003 1191 1497 
Q 1191 994 1439 701 
Q 1688 409 2113 409 
Q 2538 409 2786 701 
Q 3034 994 3034 1497 
Q 3034 2003 2786 2293 
Q 2538 2584 2113 2584 
z
M 3366 4563 
L 3366 3988 
Q 3128 4100 2886 4159 
Q 2644 4219 2406 4219 
Q 1781 4219 1451 3797 
Q 1122 3375 1075 2522 
Q 1259 2794 1537 2939 
Q 1816 3084 2150 3084 
Q 2853 3084 3261 2657 
Q 3669 2231 3669 1497 
Q 3669 778 3244 343 
Q 2819 -91 2113 -91 
Q 1303 -91 875 529 
Q 447 1150 447 2328 
Q 447 3434 972 4092 
Q 1497 4750 2381 4750 
Q 2619 4750 2861 4703 
Q 3103 4656 3366 4563 
z
" transform="scale(0.015625)"/>
       </defs>
       <use xlink:href="#DejaVuSans-2212"/>
       <use xlink:href="#DejaVuSans-36" x="83.789062"/>
      </g>
     </g>
    </g>
    <g id="xtick_3">
     <g id="line2d_3">
      <g>
       <use xlink:href="#mb0e43a8833" x="134.875444" y="248.56" style="stroke: #000000; stroke-width: 0.8"/>
      </g>
     </g>
     <g id="text_3">
      <!-- −4 -->
      <g transform="translate(127.504351 263.158437) scale(0.1 -0.1)">
       <defs>
        <path id="DejaVuSans-34" d="M 2419 4116 
L 825 1625 
L 2419 1625 
L 2419 4116 
z
M 2253 4666 
L 3047 4666 
L 3047 1625 
L 3713 1625 
L 3713 1100 
L 3047 1100 
L 3047 0 
L 2419 0 
L 2419 1100 
L 313 1100 
L 313 1709 
L 2253 4666 
z
" transform="scale(0.015625)"/>
       </defs>
       <use xlink:href="#DejaVuSans-2212"/>
       <use xlink:href="#DejaVuSans-34" x="83.789062"/>
      </g>
     </g>
    </g>
    <g id="xtick_4">
     <g id="line2d_4">
      <g>
       <use xlink:href="#mb0e43a8833" x="168.679222" y="248.56" style="stroke: #000000; stroke-width: 0.8"/>
      </g>
     </g>
     <g id="text_4">
      <!-- −2 -->
      <g transform="translate(161.308128 263.158437) scale(0.1 -0.1)">
       <defs>
        <path id="DejaVuSans-32" d="M 1228 531 
L 3431 531 
L 3431 0 
L 469 0 
L 469 531 
Q 828 903 1448 1529 
Q 2069 2156 2228 2338 
Q 2531 2678 2651 2914 
Q 2772 3150 2772 3378 
Q 2772 3750 2511 3984 
Q 2250 4219 1831 4219 
Q 1534 4219 1204 4116 
Q 875 4013 500 3803 
L 500 4441 
Q 881 4594 1212 4672 
Q 1544 4750 1819 4750 
Q 2544 4750 2975 4387 
Q 3406 4025 3406 3419 
Q 3406 3131 3298 2873 
Q 3191 2616 2906 2266 
Q 2828 2175 2409 1742 
Q 1991 1309 1228 531 
z
" transform="scale(0.015625)"/>
       </defs>
       <use xlink:href="#DejaVuSans-2212"/>
       <use xlink:href="#DejaVuSans-32" x="83.789062"/>
      </g>
     </g>
    </g>
    <g id="xtick_5">
     <g id="line2d_5">
      <g>
       <use xlink:href="#mb0e43a8833" x="202.483" y="248.56" style="stroke: #000000; stroke-width: 0.8"/>
      </g>
     </g>
     <g id="text_5">
      <!-- 0 -->
      <g transform="translate(199.30175 263.158437) scale(0.1 -0.1)">
       <defs>
        <path id="DejaVuSans-30" d="M 2034 4250 
Q 1547 4250 1301 3770 
Q 1056 3291 1056 2328 
Q 1056 1369 1301 889 
Q 1547 409 2034 409 
Q 2525 409 2770 889 
Q 3016 1369 3016 2328 
Q 3016 3291 2770 3770 
Q 2525 4250 2034 4250 
z
M 2034 4750 
Q 2819 4750 3233 4129 
Q 3647 3509 3647 2328 
Q 3647 1150 3233 529 
Q 2819 -91 2034 -91 
Q 1250 -91 836 529 
Q 422 1150 422 2328 
Q 422 3509 836 4129 
Q 1250 4750 2034 4750 
z
" transform="scale(0.015625)"/>
       </defs>
       <use xlink:href="#DejaVuSans-30"/>
      </g>
     </g>
    </g>
    <g id="xtick_6">
     <g id="line2d_6">
      <g>
       <use xlink:href="#mb0e43a8833" x="236.286778" y="248.56" style="stroke: #000000; stroke-width: 0.8"/>
      </g>
     </g>
     <g id="text_6">
      <!-- 2 -->
      <g transform="translate(233.105528 263.158437) scale(0.1 -0.1)">
       <use xlink:href="#DejaVuSans-32"/>
      </g>
     </g>
    </g>
    <g id="xtick_7">
     <g id="line2d_7">
      <g>
       <use xlink:href="#mb0e43a8833" x="270.090556" y="248.56" style="stroke: #000000; stroke-width: 0.8"/>
      </g>
     </g>
     <g id="text_7">
      <!-- 4 -->
      <g transform="translate(266.909306 263.158437) scale(0.1 -0.1)">
       <use xlink:href="#DejaVuSans-34"/>
      </g>
     </g>
    </g>
    <g id="xtick_8">
     <g id="line2d_8">
      <g>
       <use xlink:href="#mb0e43a8833" x="303.894333" y="248.56" style="stroke: #000000; stroke-width: 0.8"/>
      </g>
     </g>
     <g id="text_8">
      <!-- 6 -->
      <g transform="translate(300.713083 263.158437) scale(0.1 -0.1)">
       <use xlink:href="#DejaVuSans-36"/>
      </g>
     </g>
    </g>
    <g id="xtick_9">
     <g id="line2d_9">
      <g>
       <use xlink:href="#mb0e43a8833" x="337.698111" y="248.56" style="stroke: #000000; stroke-width: 0.8"/>
      </g>
     </g>
     <g id="text_9">
      <!-- 8 -->
      <g transform="translate(334.516861 263.158437) scale(0.1 -0.1)">
       <use xlink:href="#DejaVuSans-38"/>
      </g>
     </g>
    </g>
    <g id="text_10">
     <!-- $x$ [µm] -->
     <g transform="translate(186.133 276.838125) scale(0.1 -0.1)">
      <defs>
       <path id="DejaVuSans-Oblique-78" d="M 3841 3500 
L 2234 1784 
L 3219 0 
L 2559 0 
L 1819 1388 
L 531 0 
L -166 0 
L 1556 1844 
L 641 3500 
L 1300 3500 
L 1972 2234 
L 3144 3500 
L 3841 3500 
z
" transform="scale(0.015625)"/>
       <path id="DejaVuSans-20" transform="scale(0.015625)"/>
       <path id="DejaVuSans-5b" d="M 550 4863 
L 1875 4863 
L 1875 4416 
L 1125 4416 
L 1125 -397 
L 1875 -397 
L 1875 -844 
L 550 -844 
L 550 4863 
z
" transform="scale(0.015625)"/>
       <path id="DejaVuSans-b5" d="M 544 -1331 
L 544 3500 
L 1119 3500 
L 1119 1325 
Q 1119 872 1334 640 
Q 1550 409 1972 409 
Q 2434 409 2667 671 
Q 2900 934 2900 1459 
L 2900 3500 
L 3475 3500 
L 3475 806 
Q 3475 619 3529 530 
Q 3584 441 3700 441 
Q 3728 441 3778 458 
Q 3828 475 3916 513 
L 3916 50 
Q 3788 -22 3673 -56 
Q 3559 -91 3450 -91 
Q 3234 -91 3106 31 
Q 2978 153 2931 403 
Q 2775 156 2548 32 
Q 2322 -91 2016 -91 
Q 1697 -91 1473 31 
Q 1250 153 1119 397 
L 1119 -1331 
L 544 -1331 
z
" transform="scale(0.015625)"/>
       <path id="DejaVuSans-6d" d="M 3328 2828 
Q 3544 3216 3844 3400 
Q 4144 3584 4550 3584 
Q 5097 3584 5394 3201 
Q 5691 2819 5691 2113 
L 5691 0 
L 5113 0 
L 5113 2094 
Q 5113 2597 4934 2840 
Q 4756 3084 4391 3084 
Q 3944 3084 3684 2787 
Q 3425 2491 3425 1978 
L 3425 0 
L 2847 0 
L 2847 2094 
Q 2847 2600 2669 2842 
Q 2491 3084 2119 3084 
Q 1678 3084 1418 2786 
Q 1159 2488 1159 1978 
L 1159 0 
L 581 0 
L 581 3500 
L 1159 3500 
L 1159 2956 
Q 1356 3278 1631 3431 
Q 1906 3584 2284 3584 
Q 2666 3584 2933 3390 
Q 3200 3197 3328 2828 
z
" transform="scale(0.015625)"/>
       <path id="DejaVuSans-5d" d="M 1947 4863 
L 1947 -844 
L 622 -844 
L 622 -397 
L 1369 -397 
L 1369 4416 
L 622 4416 
L 622 4863 
L 1947 4863 
z
" transform="scale(0.015625)"/>
      </defs>
      <use xlink:href="#DejaVuSans-Oblique-78" transform="translate(0 0.015625)"/>
      <use xlink:href="#DejaVuSans-20" transform="translate(59.179688 0.015625)"/>
      <use xlink:href="#DejaVuSans-5b" transform="translate(90.966797 0.015625)"/>
      <use xlink:href="#DejaVuSans-b5" transform="translate(126.855469 0.015625)"/>
      <use xlink:href="#DejaVuSans-6d" transform="translate(190.478516 0.015625)"/>
      <use xlink:href="#DejaVuSans-5d" transform="translate(287.890625 0.015625)"/>
     </g>
    </g>
   </g>
   <g id="matplotlib.axis_2">
    <g id="ytick_1">
     <g id="line2d_10">
      <defs>
       <path id="m4298a44937" d="M 0 0 
L -3.5 0 
" style="stroke: #000000; stroke-width: 0.8"/>
      </defs>
      <g>
       <use xlink:href="#m4298a44937" x="50.366" y="218.527273" style="stroke: #000000; stroke-width: 0.8"/>
      </g>
     </g>
     <g id="text_11">
      <!-- −4 -->
      <g transform="translate(28.623812 222.326491) scale(0.1 -0.1)">
       <use xlink:href="#DejaVuSans-2212"/>
       <use xlink:href="#DejaVuSans-34" x="83.789062"/>
      </g>
     </g>
    </g>
    <g id="ytick_2">
     <g id="line2d_11">
      <g>
       <use xlink:href="#m4298a44937" x="50.366" y="178.483636" style="stroke: #000000; stroke-width: 0.8"/>
      </g>
     </g>
     <g id="text_12">
      <!-- −2 -->
      <g transform="translate(28.623812 182.282855) scale(0.1 -0.1)">
       <use xlink:href="#DejaVuSans-2212"/>
       <use xlink:href="#DejaVuSans-32" x="83.789062"/>
      </g>
     </g>
    </g>
    <g id="ytick_3">
     <g id="line2d_12">
      <g>
       <use xlink:href="#m4298a44937" x="50.366" y="138.44" style="stroke: #000000; stroke-width: 0.8"/>
      </g>
     </g>
     <g id="text_13">
      <!-- 0 -->
      <g transform="translate(37.0035 142.239219) scale(0.1 -0.1)">
       <use xlink:href="#DejaVuSans-30"/>
      </g>
     </g>
    </g>
    <g id="ytick_4">
     <g id="line2d_13">
      <g>
       <use xlink:href="#m4298a44937" x="50.366" y="98.396364" style="stroke: #000000; stroke-width: 0.8"/>
      </g>
     </g>
     <g id="text_14">
      <!-- 2 -->
      <g transform="translate(37.0035 102.195582) scale(0.1 -0.1)">
       <use xlink:href="#DejaVuSans-32"/>
      </g>
     </g>
    </g>
    <g id="ytick_5">
     <g id="line2d_14">
      <g>
       <use xlink:href="#m4298a44937" x="50.366" y="58.352727" style="stroke: #000000; stroke-width: 0.8"/>
      </g>
     </g>
     <g id="text_15">
      <!-- 4 -->
      <g transform="translate(37.0035 62.151946) scale(0.1 -0.1)">
       <use xlink:href="#DejaVuSans-34"/>
      </g>
     </g>
    </g>
    <g id="text_16">
     <!-- $\Re\{H_y\}$ [µV/m] -->
     <g transform="translate(21.523812 173.34) rotate(-90) scale(0.1 -0.1)">
      <defs>
       <path id="DejaVuSans-Oblique-211c" d="M 4006 -91 
Q 3750 481 3750 978 
Q 3750 1416 3681 1700 
Q 3556 2219 3309 2219 
Q 3178 2219 2891 2084 
L 2516 1909 
L 2516 1288 
Q 2516 644 2194 275 
Q 1872 -91 1434 -91 
Q 994 -91 675 275 
Q 353 644 353 1194 
Q 494 1156 638 1119 
Q 638 738 838 469 
Q 1038 197 1263 197 
Q 1488 197 1684 469 
Q 1884 741 1884 1209 
L 1884 3294 
Q 1884 3759 1684 4034 
Q 1488 4306 1200 4306 
Q 947 4306 744 4034 
Q 544 3766 544 3450 
Q 544 3134 744 2866 
Q 944 2594 1203 2594 
L 1372 2306 
Q 900 2306 581 2672 
Q 259 3041 259 3528 
Q 259 4019 581 4384 
Q 900 4750 1372 4750 
Q 1878 4750 2194 4384 
Q 2288 4275 2338 4175 
L 2997 4481 
Q 3581 4753 3931 4753 
Q 4078 4753 4191 4709 
Q 4584 4556 4584 4003 
Q 4584 3731 4381 3347 
Q 4175 2959 3784 2666 
Q 3966 2666 4119 2513 
Q 4231 2400 4316 2075 
Q 4416 1691 4416 1281 
Q 4416 881 4556 513 
L 5006 722 
L 5138 438 
L 4006 -91 
z
M 2450 3897 
Q 2516 3663 2516 3375 
L 2516 2241 
L 2997 2463 
Q 3447 2672 3688 2997 
Q 3919 3316 3919 3694 
Q 3919 4166 3688 4266 
Q 3613 4297 3516 4297 
Q 3316 4297 2997 4150 
L 2450 3897 
z
" transform="scale(0.015625)"/>
       <path id="DejaVuSans-7b" d="M 3272 -594 
L 3272 -1044 
L 3078 -1044 
Q 2300 -1044 2036 -812 
Q 1772 -581 1772 109 
L 1772 856 
Q 1772 1328 1603 1509 
Q 1434 1691 991 1691 
L 800 1691 
L 800 2138 
L 991 2138 
Q 1438 2138 1605 2317 
Q 1772 2497 1772 2963 
L 1772 3713 
Q 1772 4403 2036 4633 
Q 2300 4863 3078 4863 
L 3272 4863 
L 3272 4416 
L 3059 4416 
Q 2619 4416 2484 4278 
Q 2350 4141 2350 3700 
L 2350 2925 
Q 2350 2434 2208 2212 
Q 2066 1991 1722 1913 
Q 2069 1828 2209 1606 
Q 2350 1384 2350 897 
L 2350 122 
Q 2350 -319 2484 -456 
Q 2619 -594 3059 -594 
L 3272 -594 
z
" transform="scale(0.015625)"/>
       <path id="DejaVuSans-Oblique-48" d="M 1081 4666 
L 1716 4666 
L 1344 2753 
L 3634 2753 
L 4006 4666 
L 4641 4666 
L 3731 0 
L 3097 0 
L 3531 2222 
L 1241 2222 
L 806 0 
L 172 0 
L 1081 4666 
z
" transform="scale(0.015625)"/>
       <path id="DejaVuSans-Oblique-79" d="M 1588 -325 
Q 1188 -997 936 -1164 
Q 684 -1331 294 -1331 
L -159 -1331 
L -63 -850 
L 269 -850 
Q 509 -850 678 -719 
Q 847 -588 1056 -206 
L 1234 128 
L 459 3500 
L 1069 3500 
L 1650 819 
L 3256 3500 
L 3859 3500 
L 1588 -325 
z
" transform="scale(0.015625)"/>
       <path id="DejaVuSans-7d" d="M 800 -594 
L 1019 -594 
Q 1456 -594 1589 -459 
Q 1722 -325 1722 122 
L 1722 897 
Q 1722 1384 1862 1606 
Q 2003 1828 2350 1913 
Q 2003 1991 1862 2212 
Q 1722 2434 1722 2925 
L 1722 3700 
Q 1722 4144 1589 4280 
Q 1456 4416 1019 4416 
L 800 4416 
L 800 4863 
L 997 4863 
Q 1775 4863 2036 4633 
Q 2297 4403 2297 3713 
L 2297 2963 
Q 2297 2497 2465 2317 
Q 2634 2138 3078 2138 
L 3272 2138 
L 3272 1691 
L 3078 1691 
Q 2634 1691 2465 1509 
Q 2297 1328 2297 856 
L 2297 109 
Q 2297 -581 2036 -812 
Q 1775 -1044 997 -1044 
L 800 -1044 
L 800 -594 
z
" transform="scale(0.015625)"/>
       <path id="DejaVuSans-56" d="M 1831 0 
L 50 4666 
L 709 4666 
L 2188 738 
L 3669 4666 
L 4325 4666 
L 2547 0 
L 1831 0 
z
" transform="scale(0.015625)"/>
       <path id="DejaVuSans-2f" d="M 1625 4666 
L 2156 4666 
L 531 -594 
L 0 -594 
L 1625 4666 
z
" transform="scale(0.015625)"/>
      </defs>
      <use xlink:href="#DejaVuSans-Oblique-211c" transform="translate(0 0.015625)"/>
      <use xlink:href="#DejaVuSans-7b" transform="translate(81.396484 0.015625)"/>
      <use xlink:href="#DejaVuSans-Oblique-48" transform="translate(145.019531 0.015625)"/>
      <use xlink:href="#DejaVuSans-Oblique-79" transform="translate(220.214844 -16.390625) scale(0.7)"/>
      <use xlink:href="#DejaVuSans-7d" transform="translate(264.375 0.015625)"/>
      <use xlink:href="#DejaVuSans-20" transform="translate(327.998047 0.015625)"/>
      <use xlink:href="#DejaVuSans-5b" transform="translate(359.785156 0.015625)"/>
      <use xlink:href="#DejaVuSans-b5" transform="translate(395.673828 0.015625)"/>
      <use xlink:href="#DejaVuSans-56" transform="translate(459.296875 0.015625)"/>
      <use xlink:href="#DejaVuSans-2f" transform="translate(527.705078 0.015625)"/>
      <use xlink:href="#DejaVuSans-6d" transform="translate(561.396484 0.015625)"/>
      <use xlink:href="#DejaVuSans-5d" transform="translate(658.808594 0.015625)"/>
     </g>
    </g>
   </g>
   <g id="line2d_15">
    <path d="M 50.366 138.44 
L 199.694188 138.337807 
L 200.708302 137.994119 
L 201.722415 137.359395 
L 202.229472 137.033625 
L 202.736528 138.855994 
L 202.990057 139.238724 
L 203.243585 139.408147 
L 203.750642 139.378197 
L 206.032397 138.501641 
L 207.553567 138.421778 
L 354.6 138.44 
L 354.6 138.44 
" clip-path="url(#p15872e04ca)" style="fill: none; stroke: #ffa500; stroke-width: 1.5; stroke-linecap: square"/>
   </g>
   <g id="LineCollection_1">
    <path d="M 278.5415 238.549091 
L 278.5415 38.330909 
" clip-path="url(#p15872e04ca)" style="fill: none; stroke-dasharray: 5.55,2.4; stroke-dashoffset: 0; stroke: #000000; stroke-width: 1.5"/>
   </g>
   <g id="patch_3">
    <path d="M 50.366 248.56 
L 50.366 28.32 
" style="fill: none; stroke: #000000; stroke-width: 0.8; stroke-linejoin: miter; stroke-linecap: square"/>
   </g>
   <g id="patch_4">
    <path d="M 354.6 248.56 
L 354.6 28.32 
" style="fill: none; stroke: #000000; stroke-width: 0.8; stroke-linejoin: miter; stroke-linecap: square"/>
   </g>
   <g id="patch_5">
    <path d="M 50.366 248.56 
L 354.6 248.56 
" style="fill: none; stroke: #000000; stroke-width: 0.8; stroke-linejoin: miter; stroke-linecap: square"/>
   </g>
   <g id="patch_6">
    <path d="M 50.366 28.32 
L 354.6 28.32 
" style="fill: none; stroke: #000000; stroke-width: 0.8; stroke-linejoin: miter; stroke-linecap: square"/>
   </g>
   <g id="text_17">
    <!-- Magnetic field at $ct = 0.38$µm, i=50 -->
    <g transform="translate(96.103 22.32) scale(0.12 -0.12)">
     <defs>
      <path id="DejaVuSans-4d" d="M 628 4666 
L 1569 4666 
L 2759 1491 
L 3956 4666 
L 4897 4666 
L 4897 0 
L 4281 0 
L 4281 4097 
L 3078 897 
L 2444 897 
L 1241 4097 
L 1241 0 
L 628 0 
L 628 4666 
z
" transform="scale(0.015625)"/>
      <path id="DejaVuSans-61" d="M 2194 1759 
Q 1497 1759 1228 1600 
Q 959 1441 959 1056 
Q 959 750 1161 570 
Q 1363 391 1709 391 
Q 2188 391 2477 730 
Q 2766 1069 2766 1631 
L 2766 1759 
L 2194 1759 
z
M 3341 1997 
L 3341 0 
L 2766 0 
L 2766 531 
Q 2569 213 2275 61 
Q 1981 -91 1556 -91 
Q 1019 -91 701 211 
Q 384 513 384 1019 
Q 384 1609 779 1909 
Q 1175 2209 1959 2209 
L 2766 2209 
L 2766 2266 
Q 2766 2663 2505 2880 
Q 2244 3097 1772 3097 
Q 1472 3097 1187 3025 
Q 903 2953 641 2809 
L 641 3341 
Q 956 3463 1253 3523 
Q 1550 3584 1831 3584 
Q 2591 3584 2966 3190 
Q 3341 2797 3341 1997 
z
" transform="scale(0.015625)"/>
      <path id="DejaVuSans-67" d="M 2906 1791 
Q 2906 2416 2648 2759 
Q 2391 3103 1925 3103 
Q 1463 3103 1205 2759 
Q 947 2416 947 1791 
Q 947 1169 1205 825 
Q 1463 481 1925 481 
Q 2391 481 2648 825 
Q 2906 1169 2906 1791 
z
M 3481 434 
Q 3481 -459 3084 -895 
Q 2688 -1331 1869 -1331 
Q 1566 -1331 1297 -1286 
Q 1028 -1241 775 -1147 
L 775 -588 
Q 1028 -725 1275 -790 
Q 1522 -856 1778 -856 
Q 2344 -856 2625 -561 
Q 2906 -266 2906 331 
L 2906 616 
Q 2728 306 2450 153 
Q 2172 0 1784 0 
Q 1141 0 747 490 
Q 353 981 353 1791 
Q 353 2603 747 3093 
Q 1141 3584 1784 3584 
Q 2172 3584 2450 3431 
Q 2728 3278 2906 2969 
L 2906 3500 
L 3481 3500 
L 3481 434 
z
" transform="scale(0.015625)"/>
      <path id="DejaVuSans-6e" d="M 3513 2113 
L 3513 0 
L 2938 0 
L 2938 2094 
Q 2938 2591 2744 2837 
Q 2550 3084 2163 3084 
Q 1697 3084 1428 2787 
Q 1159 2491 1159 1978 
L 1159 0 
L 581 0 
L 581 3500 
L 1159 3500 
L 1159 2956 
Q 1366 3272 1645 3428 
Q 1925 3584 2291 3584 
Q 2894 3584 3203 3211 
Q 3513 2838 3513 2113 
z
" transform="scale(0.015625)"/>
      <path id="DejaVuSans-65" d="M 3597 1894 
L 3597 1613 
L 953 1613 
Q 991 1019 1311 708 
Q 1631 397 2203 397 
Q 2534 397 2845 478 
Q 3156 559 3463 722 
L 3463 178 
Q 3153 47 2828 -22 
Q 2503 -91 2169 -91 
Q 1331 -91 842 396 
Q 353 884 353 1716 
Q 353 2575 817 3079 
Q 1281 3584 2069 3584 
Q 2775 3584 3186 3129 
Q 3597 2675 3597 1894 
z
M 3022 2063 
Q 3016 2534 2758 2815 
Q 2500 3097 2075 3097 
Q 1594 3097 1305 2825 
Q 1016 2553 972 2059 
L 3022 2063 
z
" transform="scale(0.015625)"/>
      <path id="DejaVuSans-74" d="M 1172 4494 
L 1172 3500 
L 2356 3500 
L 2356 3053 
L 1172 3053 
L 1172 1153 
Q 1172 725 1289 603 
Q 1406 481 1766 481 
L 2356 481 
L 2356 0 
L 1766 0 
Q 1100 0 847 248 
Q 594 497 594 1153 
L 594 3053 
L 172 3053 
L 172 3500 
L 594 3500 
L 594 4494 
L 1172 4494 
z
" transform="scale(0.015625)"/>
      <path id="DejaVuSans-69" d="M 603 3500 
L 1178 3500 
L 1178 0 
L 603 0 
L 603 3500 
z
M 603 4863 
L 1178 4863 
L 1178 4134 
L 603 4134 
L 603 4863 
z
" transform="scale(0.015625)"/>
      <path id="DejaVuSans-63" d="M 3122 3366 
L 3122 2828 
Q 2878 2963 2633 3030 
Q 2388 3097 2138 3097 
Q 1578 3097 1268 2742 
Q 959 2388 959 1747 
Q 959 1106 1268 751 
Q 1578 397 2138 397 
Q 2388 397 2633 464 
Q 2878 531 3122 666 
L 3122 134 
Q 2881 22 2623 -34 
Q 2366 -91 2075 -91 
Q 1284 -91 818 406 
Q 353 903 353 1747 
Q 353 2603 823 3093 
Q 1294 3584 2113 3584 
Q 2378 3584 2631 3529 
Q 2884 3475 3122 3366 
z
" transform="scale(0.015625)"/>
      <path id="DejaVuSans-66" d="M 2375 4863 
L 2375 4384 
L 1825 4384 
Q 1516 4384 1395 4259 
Q 1275 4134 1275 3809 
L 1275 3500 
L 2222 3500 
L 2222 3053 
L 1275 3053 
L 1275 0 
L 697 0 
L 697 3053 
L 147 3053 
L 147 3500 
L 697 3500 
L 697 3744 
Q 697 4328 969 4595 
Q 1241 4863 1831 4863 
L 2375 4863 
z
" transform="scale(0.015625)"/>
      <path id="DejaVuSans-6c" d="M 603 4863 
L 1178 4863 
L 1178 0 
L 603 0 
L 603 4863 
z
" transform="scale(0.015625)"/>
      <path id="DejaVuSans-64" d="M 2906 2969 
L 2906 4863 
L 3481 4863 
L 3481 0 
L 2906 0 
L 2906 525 
Q 2725 213 2448 61 
Q 2172 -91 1784 -91 
Q 1150 -91 751 415 
Q 353 922 353 1747 
Q 353 2572 751 3078 
Q 1150 3584 1784 3584 
Q 2172 3584 2448 3432 
Q 2725 3281 2906 2969 
z
M 947 1747 
Q 947 1113 1208 752 
Q 1469 391 1925 391 
Q 2381 391 2643 752 
Q 2906 1113 2906 1747 
Q 2906 2381 2643 2742 
Q 2381 3103 1925 3103 
Q 1469 3103 1208 2742 
Q 947 2381 947 1747 
z
" transform="scale(0.015625)"/>
      <path id="DejaVuSans-Oblique-63" d="M 3431 3366 
L 3316 2797 
Q 3109 2947 2876 3022 
Q 2644 3097 2394 3097 
Q 2119 3097 1870 3000 
Q 1622 2903 1453 2725 
Q 1184 2453 1037 2087 
Q 891 1722 891 1331 
Q 891 859 1127 628 
Q 1363 397 1844 397 
Q 2081 397 2348 469 
Q 2616 541 2906 684 
L 2797 116 
Q 2547 13 2283 -39 
Q 2019 -91 1741 -91 
Q 1044 -91 669 257 
Q 294 606 294 1253 
Q 294 1797 489 2255 
Q 684 2713 1069 3078 
Q 1331 3328 1684 3456 
Q 2038 3584 2456 3584 
Q 2700 3584 2940 3529 
Q 3181 3475 3431 3366 
z
" transform="scale(0.015625)"/>
      <path id="DejaVuSans-Oblique-74" d="M 2706 3500 
L 2619 3053 
L 1472 3053 
L 1100 1153 
Q 1081 1047 1072 975 
Q 1063 903 1063 863 
Q 1063 663 1183 572 
Q 1303 481 1569 481 
L 2150 481 
L 2053 0 
L 1503 0 
Q 991 0 739 200 
Q 488 400 488 806 
Q 488 878 497 964 
Q 506 1050 525 1153 
L 897 3053 
L 409 3053 
L 500 3500 
L 978 3500 
L 1172 4494 
L 1747 4494 
L 1556 3500 
L 2706 3500 
z
" transform="scale(0.015625)"/>
      <path id="DejaVuSans-3d" d="M 678 2906 
L 4684 2906 
L 4684 2381 
L 678 2381 
L 678 2906 
z
M 678 1631 
L 4684 1631 
L 4684 1100 
L 678 1100 
L 678 1631 
z
" transform="scale(0.015625)"/>
      <path id="DejaVuSans-2e" d="M 684 794 
L 1344 794 
L 1344 0 
L 684 0 
L 684 794 
z
" transform="scale(0.015625)"/>
      <path id="DejaVuSans-33" d="M 2597 2516 
Q 3050 2419 3304 2112 
Q 3559 1806 3559 1356 
Q 3559 666 3084 287 
Q 2609 -91 1734 -91 
Q 1441 -91 1130 -33 
Q 819 25 488 141 
L 488 750 
Q 750 597 1062 519 
Q 1375 441 1716 441 
Q 2309 441 2620 675 
Q 2931 909 2931 1356 
Q 2931 1769 2642 2001 
Q 2353 2234 1838 2234 
L 1294 2234 
L 1294 2753 
L 1863 2753 
Q 2328 2753 2575 2939 
Q 2822 3125 2822 3475 
Q 2822 3834 2567 4026 
Q 2313 4219 1838 4219 
Q 1578 4219 1281 4162 
Q 984 4106 628 3988 
L 628 4550 
Q 988 4650 1302 4700 
Q 1616 4750 1894 4750 
Q 2613 4750 3031 4423 
Q 3450 4097 3450 3541 
Q 3450 3153 3228 2886 
Q 3006 2619 2597 2516 
z
" transform="scale(0.015625)"/>
      <path id="DejaVuSans-2c" d="M 750 794 
L 1409 794 
L 1409 256 
L 897 -744 
L 494 -744 
L 750 256 
L 750 794 
z
" transform="scale(0.015625)"/>
      <path id="DejaVuSans-35" d="M 691 4666 
L 3169 4666 
L 3169 4134 
L 1269 4134 
L 1269 2991 
Q 1406 3038 1543 3061 
Q 1681 3084 1819 3084 
Q 2600 3084 3056 2656 
Q 3513 2228 3513 1497 
Q 3513 744 3044 326 
Q 2575 -91 1722 -91 
Q 1428 -91 1123 -41 
Q 819 9 494 109 
L 494 744 
Q 775 591 1075 516 
Q 1375 441 1709 441 
Q 2250 441 2565 725 
Q 2881 1009 2881 1497 
Q 2881 1984 2565 2268 
Q 2250 2553 1709 2553 
Q 1456 2553 1204 2497 
Q 953 2441 691 2322 
L 691 4666 
z
" transform="scale(0.015625)"/>
     </defs>
     <use xlink:href="#DejaVuSans-4d" transform="translate(0 0.015625)"/>
     <use xlink:href="#DejaVuSans-61" transform="translate(86.279297 0.015625)"/>
     <use xlink:href="#DejaVuSans-67" transform="translate(147.558594 0.015625)"/>
     <use xlink:href="#DejaVuSans-6e" transform="translate(211.035156 0.015625)"/>
     <use xlink:href="#DejaVuSans-65" transform="translate(274.414062 0.015625)"/>
     <use xlink:href="#DejaVuSans-74" transform="translate(335.9375 0.015625)"/>
     <use xlink:href="#DejaVuSans-69" transform="translate(375.146484 0.015625)"/>
     <use xlink:href="#DejaVuSans-63" transform="translate(402.929688 0.015625)"/>
     <use xlink:href="#DejaVuSans-20" transform="translate(457.910156 0.015625)"/>
     <use xlink:href="#DejaVuSans-66" transform="translate(489.697266 0.015625)"/>
     <use xlink:href="#DejaVuSans-69" transform="translate(524.902344 0.015625)"/>
     <use xlink:href="#DejaVuSans-65" transform="translate(552.685547 0.015625)"/>
     <use xlink:href="#DejaVuSans-6c" transform="translate(614.208984 0.015625)"/>
     <use xlink:href="#DejaVuSans-64" transform="translate(641.992188 0.015625)"/>
     <use xlink:href="#DejaVuSans-20" transform="translate(705.46875 0.015625)"/>
     <use xlink:href="#DejaVuSans-61" transform="translate(737.255859 0.015625)"/>
     <use xlink:href="#DejaVuSans-74" transform="translate(798.535156 0.015625)"/>
     <use xlink:href="#DejaVuSans-20" transform="translate(837.744141 0.015625)"/>
     <use xlink:href="#DejaVuSans-Oblique-63" transform="translate(869.53125 0.015625)"/>
     <use xlink:href="#DejaVuSans-Oblique-74" transform="translate(924.511719 0.015625)"/>
     <use xlink:href="#DejaVuSans-3d" transform="translate(983.203125 0.015625)"/>
     <use xlink:href="#DejaVuSans-30" transform="translate(1086.474609 0.015625)"/>
     <use xlink:href="#DejaVuSans-2e" transform="translate(1150.097656 0.015625)"/>
     <use xlink:href="#DejaVuSans-33" transform="translate(1181.884766 0.015625)"/>
     <use xlink:href="#DejaVuSans-38" transform="translate(1245.507812 0.015625)"/>
     <use xlink:href="#DejaVuSans-b5" transform="translate(1309.130859 0.015625)"/>
     <use xlink:href="#DejaVuSans-6d" transform="translate(1372.753906 0.015625)"/>
     <use xlink:href="#DejaVuSans-2c" transform="translate(1470.166016 0.015625)"/>
     <use xlink:href="#DejaVuSans-20" transform="translate(1501.953125 0.015625)"/>
     <use xlink:href="#DejaVuSans-69" transform="translate(1533.740234 0.015625)"/>
     <use xlink:href="#DejaVuSans-3d" transform="translate(1561.523438 0.015625)"/>
     <use xlink:href="#DejaVuSans-35" transform="translate(1645.3125 0.015625)"/>
     <use xlink:href="#DejaVuSans-30" transform="translate(1708.935547 0.015625)"/>
    </g>
   </g>
  </g>
  <g id="axes_2">
   <g id="patch_7">
    <path d="M 404.966 248.56 
L 709.2 248.56 
L 709.2 28.32 
L 404.966 28.32 
z
" style="fill: #ffffff"/>
   </g>
   <g id="matplotlib.axis_3">
    <g id="xtick_10">
     <g id="line2d_16">
      <g>
       <use xlink:href="#mb0e43a8833" x="421.867889" y="248.56" style="stroke: #000000; stroke-width: 0.8"/>
      </g>
     </g>
     <g id="text_18">
      <!-- −8 -->
      <g transform="translate(414.496795 263.158437) scale(0.1 -0.1)">
       <use xlink:href="#DejaVuSans-2212"/>
       <use xlink:href="#DejaVuSans-38" x="83.789062"/>
      </g>
     </g>
    </g>
    <g id="xtick_11">
     <g id="line2d_17">
      <g>
       <use xlink:href="#mb0e43a8833" x="455.671667" y="248.56" style="stroke: #000000; stroke-width: 0.8"/>
      </g>
     </g>
     <g id="text_19">
      <!-- −6 -->
      <g transform="translate(448.300573 263.158437) scale(0.1 -0.1)">
       <use xlink:href="#DejaVuSans-2212"/>
       <use xlink:href="#DejaVuSans-36" x="83.789062"/>
      </g>
     </g>
    </g>
    <g id="xtick_12">
     <g id="line2d_18">
      <g>
       <use xlink:href="#mb0e43a8833" x="489.475444" y="248.56" style="stroke: #000000; stroke-width: 0.8"/>
      </g>
     </g>
     <g id="text_20">
      <!-- −4 -->
      <g transform="translate(482.104351 263.158437) scale(0.1 -0.1)">
       <use xlink:href="#DejaVuSans-2212"/>
       <use xlink:href="#DejaVuSans-34" x="83.789062"/>
      </g>
     </g>
    </g>
    <g id="xtick_13">
     <g id="line2d_19">
      <g>
       <use xlink:href="#mb0e43a8833" x="523.279222" y="248.56" style="stroke: #000000; stroke-width: 0.8"/>
      </g>
     </g>
     <g id="text_21">
      <!-- −2 -->
      <g transform="translate(515.908128 263.158437) scale(0.1 -0.1)">
       <use xlink:href="#DejaVuSans-2212"/>
       <use xlink:href="#DejaVuSans-32" x="83.789062"/>
      </g>
     </g>
    </g>
    <g id="xtick_14">
     <g id="line2d_20">
      <g>
       <use xlink:href="#mb0e43a8833" x="557.083" y="248.56" style="stroke: #000000; stroke-width: 0.8"/>
      </g>
     </g>
     <g id="text_22">
      <!-- 0 -->
      <g transform="translate(553.90175 263.158437) scale(0.1 -0.1)">
       <use xlink:href="#DejaVuSans-30"/>
      </g>
     </g>
    </g>
    <g id="xtick_15">
     <g id="line2d_21">
      <g>
       <use xlink:href="#mb0e43a8833" x="590.886778" y="248.56" style="stroke: #000000; stroke-width: 0.8"/>
      </g>
     </g>
     <g id="text_23">
      <!-- 2 -->
      <g transform="translate(587.705528 263.158437) scale(0.1 -0.1)">
       <use xlink:href="#DejaVuSans-32"/>
      </g>
     </g>
    </g>
    <g id="xtick_16">
     <g id="line2d_22">
      <g>
       <use xlink:href="#mb0e43a8833" x="624.690556" y="248.56" style="stroke: #000000; stroke-width: 0.8"/>
      </g>
     </g>
     <g id="text_24">
      <!-- 4 -->
      <g transform="translate(621.509306 263.158437) scale(0.1 -0.1)">
       <use xlink:href="#DejaVuSans-34"/>
      </g>
     </g>
    </g>
    <g id="xtick_17">
     <g id="line2d_23">
      <g>
       <use xlink:href="#mb0e43a8833" x="658.494333" y="248.56" style="stroke: #000000; stroke-width: 0.8"/>
      </g>
     </g>
     <g id="text_25">
      <!-- 6 -->
      <g transform="translate(655.313083 263.158437) scale(0.1 -0.1)">
       <use xlink:href="#DejaVuSans-36"/>
      </g>
     </g>
    </g>
    <g id="xtick_18">
     <g id="line2d_24">
      <g>
       <use xlink:href="#mb0e43a8833" x="692.298111" y="248.56" style="stroke: #000000; stroke-width: 0.8"/>
      </g>
     </g>
     <g id="text_26">
      <!-- 8 -->
      <g transform="translate(689.116861 263.158437) scale(0.1 -0.1)">
       <use xlink:href="#DejaVuSans-38"/>
      </g>
     </g>
    </g>
    <g id="text_27">
     <!-- $x$ [µm] -->
     <g transform="translate(540.733 276.838125) scale(0.1 -0.1)">
      <use xlink:href="#DejaVuSans-Oblique-78" transform="translate(0 0.015625)"/>
      <use xlink:href="#DejaVuSans-20" transform="translate(59.179688 0.015625)"/>
      <use xlink:href="#DejaVuSans-5b" transform="translate(90.966797 0.015625)"/>
      <use xlink:href="#DejaVuSans-b5" transform="translate(126.855469 0.015625)"/>
      <use xlink:href="#DejaVuSans-6d" transform="translate(190.478516 0.015625)"/>
      <use xlink:href="#DejaVuSans-5d" transform="translate(287.890625 0.015625)"/>
     </g>
    </g>
   </g>
   <g id="matplotlib.axis_4">
    <g id="ytick_6">
     <g id="line2d_25">
      <g>
       <use xlink:href="#m4298a44937" x="404.966" y="218.527273" style="stroke: #000000; stroke-width: 0.8"/>
      </g>
     </g>
     <g id="text_28">
      <!-- −4 -->
      <g transform="translate(383.223813 222.326491) scale(0.1 -0.1)">
       <use xlink:href="#DejaVuSans-2212"/>
       <use xlink:href="#DejaVuSans-34" x="83.789062"/>
      </g>
     </g>
    </g>
    <g id="ytick_7">
     <g id="line2d_26">
      <g>
       <use xlink:href="#m4298a44937" x="404.966" y="178.483636" style="stroke: #000000; stroke-width: 0.8"/>
      </g>
     </g>
     <g id="text_29">
      <!-- −2 -->
      <g transform="translate(383.223813 182.282855) scale(0.1 -0.1)">
       <use xlink:href="#DejaVuSans-2212"/>
       <use xlink:href="#DejaVuSans-32" x="83.789062"/>
      </g>
     </g>
    </g>
    <g id="ytick_8">
     <g id="line2d_27">
      <g>
       <use xlink:href="#m4298a44937" x="404.966" y="138.44" style="stroke: #000000; stroke-width: 0.8"/>
      </g>
     </g>
     <g id="text_30">
      <!-- 0 -->
      <g transform="translate(391.6035 142.239219) scale(0.1 -0.1)">
       <use xlink:href="#DejaVuSans-30"/>
      </g>
     </g>
    </g>
    <g id="ytick_9">
     <g id="line2d_28">
      <g>
       <use xlink:href="#m4298a44937" x="404.966" y="98.396364" style="stroke: #000000; stroke-width: 0.8"/>
      </g>
     </g>
     <g id="text_31">
      <!-- 2 -->
      <g transform="translate(391.6035 102.195582) scale(0.1 -0.1)">
       <use xlink:href="#DejaVuSans-32"/>
      </g>
     </g>
    </g>
    <g id="ytick_10">
     <g id="line2d_29">
      <g>
       <use xlink:href="#m4298a44937" x="404.966" y="58.352727" style="stroke: #000000; stroke-width: 0.8"/>
      </g>
     </g>
     <g id="text_32">
      <!-- 4 -->
      <g transform="translate(391.6035 62.151946) scale(0.1 -0.1)">
       <use xlink:href="#DejaVuSans-34"/>
      </g>
     </g>
    </g>
    <g id="text_33">
     <!-- $\Re\{H_y\}$ [µV/m] -->
     <g transform="translate(376.123812 173.34) rotate(-90) scale(0.1 -0.1)">
      <use xlink:href="#DejaVuSans-Oblique-211c" transform="translate(0 0.015625)"/>
      <use xlink:href="#DejaVuSans-7b" transform="translate(81.396484 0.015625)"/>
      <use xlink:href="#DejaVuSans-Oblique-48" transform="translate(145.019531 0.015625)"/>
      <use xlink:href="#DejaVuSans-Oblique-79" transform="translate(220.214844 -16.390625) scale(0.7)"/>
      <use xlink:href="#DejaVuSans-7d" transform="translate(264.375 0.015625)"/>
      <use xlink:href="#DejaVuSans-20" transform="translate(327.998047 0.015625)"/>
      <use xlink:href="#DejaVuSans-5b" transform="translate(359.785156 0.015625)"/>
      <use xlink:href="#DejaVuSans-b5" transform="translate(395.673828 0.015625)"/>
      <use xlink:href="#DejaVuSans-56" transform="translate(459.296875 0.015625)"/>
      <use xlink:href="#DejaVuSans-2f" transform="translate(527.705078 0.015625)"/>
      <use xlink:href="#DejaVuSans-6d" transform="translate(561.396484 0.015625)"/>
      <use xlink:href="#DejaVuSans-5d" transform="translate(658.808594 0.015625)"/>
     </g>
    </g>
   </g>
   <g id="line2d_30">
    <path d="M 404.966 138.44 
L 490.658577 138.362729 
L 491.67269 138.106517 
L 492.686803 137.600993 
L 493.700917 137.101572 
L 494.207973 137.121568 
L 494.461502 137.278577 
L 494.968558 138.025347 
L 495.475615 139.526987 
L 495.982672 141.935632 
L 496.743257 147.19238 
L 498.010898 156.960094 
L 498.517955 158.911392 
L 498.771483 158.979516 
L 499.025012 158.296834 
L 499.27854 156.780966 
L 499.785597 151.082361 
L 500.292653 141.952333 
L 501.306767 117.178533 
L 502.067352 99.612089 
L 502.574408 91.968613 
L 502.827937 89.926557 
L 503.081465 89.210816 
L 503.334993 89.852547 
L 503.588522 91.821156 
L 504.095578 99.324513 
L 504.856163 116.709464 
L 505.870277 141.327596 
L 506.377333 150.430689 
L 506.88439 156.143175 
L 507.137918 157.682542 
L 507.391447 158.399835 
L 507.644975 158.376897 
L 507.898503 157.71859 
L 508.40556 154.977869 
L 510.433787 140.80447 
L 510.940843 138.918673 
L 511.4479 137.835047 
L 511.954957 137.367703 
L 512.462013 137.305345 
L 513.222598 137.57704 
L 514.743768 138.20207 
L 516.01141 138.402049 
L 518.293165 138.443178 
L 572.801757 138.439952 
L 599.929288 138.552474 
L 600.689873 138.8462 
L 601.450458 139.37624 
L 602.7181 140.378132 
L 602.971628 140.432323 
L 603.225157 140.36556 
L 603.478685 140.138669 
L 603.732213 139.710586 
L 604.23927 138.099132 
L 604.746327 135.295694 
L 605.506912 128.861022 
L 606.774553 116.5584 
L 607.28161 114.125818 
L 607.535138 114.073462 
L 607.788667 114.976309 
L 608.042195 116.928788 
L 608.549252 124.130925 
L 609.056308 135.432134 
L 611.084535 188.634994 
L 611.338063 191.629014 
L 611.591592 193.090676 
L 611.84512 192.960326 
L 612.098648 191.253251 
L 612.605705 183.531197 
L 613.36629 164.314318 
L 614.633932 130.408134 
L 615.140988 121.672503 
L 615.648045 116.960596 
L 615.901573 116.060345 
L 616.155102 116.020105 
L 616.40863 116.721171 
L 616.915687 119.79336 
L 618.943913 136.002641 
L 619.45097 138.150627 
L 619.958027 139.365697 
L 620.465083 139.861834 
L 620.97214 139.887585 
L 621.732725 139.509377 
L 623.000367 138.802397 
L 624.01448 138.525359 
L 625.282122 138.431199 
L 634.916198 138.44 
L 709.2 138.44 
L 709.2 138.44 
" clip-path="url(#p24aac24b8d)" style="fill: none; stroke: #ffa500; stroke-width: 1.5; stroke-linecap: square"/>
   </g>
   <g id="LineCollection_2">
    <path d="M 633.1415 238.549091 
L 633.1415 38.330909 
" clip-path="url(#p24aac24b8d)" style="fill: none; stroke-dasharray: 5.55,2.4; stroke-dashoffset: 0; stroke: #000000; stroke-width: 1.5"/>
   </g>
   <g id="patch_8">
    <path d="M 404.966 248.56 
L 404.966 28.32 
" style="fill: none; stroke: #000000; stroke-width: 0.8; stroke-linejoin: miter; stroke-linecap: square"/>
   </g>
   <g id="patch_9">
    <path d="M 709.2 248.56 
L 709.2 28.32 
" style="fill: none; stroke: #000000; stroke-width: 0.8; stroke-linejoin: miter; stroke-linecap: square"/>
   </g>
   <g id="patch_10">
    <path d="M 404.966 248.56 
L 709.2 248.56 
" style="fill: none; stroke: #000000; stroke-width: 0.8; stroke-linejoin: miter; stroke-linecap: square"/>
   </g>
   <g id="patch_11">
    <path d="M 404.966 28.32 
L 709.2 28.32 
" style="fill: none; stroke: #000000; stroke-width: 0.8; stroke-linejoin: miter; stroke-linecap: square"/>
   </g>
   <g id="text_34">
    <!-- Magnetic field at $ct = 4.13$µm, i=550 -->
    <g transform="translate(446.863 22.32) scale(0.12 -0.12)">
     <defs>
      <path id="DejaVuSans-31" d="M 794 531 
L 1825 531 
L 1825 4091 
L 703 3866 
L 703 4441 
L 1819 4666 
L 2450 4666 
L 2450 531 
L 3481 531 
L 3481 0 
L 794 0 
L 794 531 
z
" transform="scale(0.015625)"/>
     </defs>
     <use xlink:href="#DejaVuSans-4d" transform="translate(0 0.015625)"/>
     <use xlink:href="#DejaVuSans-61" transform="translate(86.279297 0.015625)"/>
     <use xlink:href="#DejaVuSans-67" transform="translate(147.558594 0.015625)"/>
     <use xlink:href="#DejaVuSans-6e" transform="translate(211.035156 0.015625)"/>
     <use xlink:href="#DejaVuSans-65" transform="translate(274.414062 0.015625)"/>
     <use xlink:href="#DejaVuSans-74" transform="translate(335.9375 0.015625)"/>
     <use xlink:href="#DejaVuSans-69" transform="translate(375.146484 0.015625)"/>
     <use xlink:href="#DejaVuSans-63" transform="translate(402.929688 0.015625)"/>
     <use xlink:href="#DejaVuSans-20" transform="translate(457.910156 0.015625)"/>
     <use xlink:href="#DejaVuSans-66" transform="translate(489.697266 0.015625)"/>
     <use xlink:href="#DejaVuSans-69" transform="translate(524.902344 0.015625)"/>
     <use xlink:href="#DejaVuSans-65" transform="translate(552.685547 0.015625)"/>
     <use xlink:href="#DejaVuSans-6c" transform="translate(614.208984 0.015625)"/>
     <use xlink:href="#DejaVuSans-64" transform="translate(641.992188 0.015625)"/>
     <use xlink:href="#DejaVuSans-20" transform="translate(705.46875 0.015625)"/>
     <use xlink:href="#DejaVuSans-61" transform="translate(737.255859 0.015625)"/>
     <use xlink:href="#DejaVuSans-74" transform="translate(798.535156 0.015625)"/>
     <use xlink:href="#DejaVuSans-20" transform="translate(837.744141 0.015625)"/>
     <use xlink:href="#DejaVuSans-Oblique-63" transform="translate(869.53125 0.015625)"/>
     <use xlink:href="#DejaVuSans-Oblique-74" transform="translate(924.511719 0.015625)"/>
     <use xlink:href="#DejaVuSans-3d" transform="translate(983.203125 0.015625)"/>
     <use xlink:href="#DejaVuSans-34" transform="translate(1086.474609 0.015625)"/>
     <use xlink:href="#DejaVuSans-2e" transform="translate(1150.097656 0.015625)"/>
     <use xlink:href="#DejaVuSans-31" transform="translate(1181.884766 0.015625)"/>
     <use xlink:href="#DejaVuSans-33" transform="translate(1245.507812 0.015625)"/>
     <use xlink:href="#DejaVuSans-b5" transform="translate(1309.130859 0.015625)"/>
     <use xlink:href="#DejaVuSans-6d" transform="translate(1372.753906 0.015625)"/>
     <use xlink:href="#DejaVuSans-2c" transform="translate(1470.166016 0.015625)"/>
     <use xlink:href="#DejaVuSans-20" transform="translate(1501.953125 0.015625)"/>
     <use xlink:href="#DejaVuSans-69" transform="translate(1533.740234 0.015625)"/>
     <use xlink:href="#DejaVuSans-3d" transform="translate(1561.523438 0.015625)"/>
     <use xlink:href="#DejaVuSans-35" transform="translate(1645.3125 0.015625)"/>
     <use xlink:href="#DejaVuSans-35" transform="translate(1708.935547 0.015625)"/>
     <use xlink:href="#DejaVuSans-30" transform="translate(1772.558594 0.015625)"/>
    </g>
   </g>
  </g>
  <g id="axes_3">
   <g id="patch_12">
    <path d="M 50.366 531.16 
L 354.6 531.16 
L 354.6 310.92 
L 50.366 310.92 
z
" style="fill: #ffffff"/>
   </g>
   <g id="matplotlib.axis_5">
    <g id="xtick_19">
     <g id="line2d_31">
      <g>
       <use xlink:href="#mb0e43a8833" x="67.267889" y="531.16" style="stroke: #000000; stroke-width: 0.8"/>
      </g>
     </g>
     <g id="text_35">
      <!-- −8 -->
      <g transform="translate(59.896795 545.758438) scale(0.1 -0.1)">
       <use xlink:href="#DejaVuSans-2212"/>
       <use xlink:href="#DejaVuSans-38" x="83.789062"/>
      </g>
     </g>
    </g>
    <g id="xtick_20">
     <g id="line2d_32">
      <g>
       <use xlink:href="#mb0e43a8833" x="101.071667" y="531.16" style="stroke: #000000; stroke-width: 0.8"/>
      </g>
     </g>
     <g id="text_36">
      <!-- −6 -->
      <g transform="translate(93.700573 545.758438) scale(0.1 -0.1)">
       <use xlink:href="#DejaVuSans-2212"/>
       <use xlink:href="#DejaVuSans-36" x="83.789062"/>
      </g>
     </g>
    </g>
    <g id="xtick_21">
     <g id="line2d_33">
      <g>
       <use xlink:href="#mb0e43a8833" x="134.875444" y="531.16" style="stroke: #000000; stroke-width: 0.8"/>
      </g>
     </g>
     <g id="text_37">
      <!-- −4 -->
      <g transform="translate(127.504351 545.758438) scale(0.1 -0.1)">
       <use xlink:href="#DejaVuSans-2212"/>
       <use xlink:href="#DejaVuSans-34" x="83.789062"/>
      </g>
     </g>
    </g>
    <g id="xtick_22">
     <g id="line2d_34">
      <g>
       <use xlink:href="#mb0e43a8833" x="168.679222" y="531.16" style="stroke: #000000; stroke-width: 0.8"/>
      </g>
     </g>
     <g id="text_38">
      <!-- −2 -->
      <g transform="translate(161.308128 545.758438) scale(0.1 -0.1)">
       <use xlink:href="#DejaVuSans-2212"/>
       <use xlink:href="#DejaVuSans-32" x="83.789062"/>
      </g>
     </g>
    </g>
    <g id="xtick_23">
     <g id="line2d_35">
      <g>
       <use xlink:href="#mb0e43a8833" x="202.483" y="531.16" style="stroke: #000000; stroke-width: 0.8"/>
      </g>
     </g>
     <g id="text_39">
      <!-- 0 -->
      <g transform="translate(199.30175 545.758438) scale(0.1 -0.1)">
       <use xlink:href="#DejaVuSans-30"/>
      </g>
     </g>
    </g>
    <g id="xtick_24">
     <g id="line2d_36">
      <g>
       <use xlink:href="#mb0e43a8833" x="236.286778" y="531.16" style="stroke: #000000; stroke-width: 0.8"/>
      </g>
     </g>
     <g id="text_40">
      <!-- 2 -->
      <g transform="translate(233.105528 545.758438) scale(0.1 -0.1)">
       <use xlink:href="#DejaVuSans-32"/>
      </g>
     </g>
    </g>
    <g id="xtick_25">
     <g id="line2d_37">
      <g>
       <use xlink:href="#mb0e43a8833" x="270.090556" y="531.16" style="stroke: #000000; stroke-width: 0.8"/>
      </g>
     </g>
     <g id="text_41">
      <!-- 4 -->
      <g transform="translate(266.909306 545.758438) scale(0.1 -0.1)">
       <use xlink:href="#DejaVuSans-34"/>
      </g>
     </g>
    </g>
    <g id="xtick_26">
     <g id="line2d_38">
      <g>
       <use xlink:href="#mb0e43a8833" x="303.894333" y="531.16" style="stroke: #000000; stroke-width: 0.8"/>
      </g>
     </g>
     <g id="text_42">
      <!-- 6 -->
      <g transform="translate(300.713083 545.758438) scale(0.1 -0.1)">
       <use xlink:href="#DejaVuSans-36"/>
      </g>
     </g>
    </g>
    <g id="xtick_27">
     <g id="line2d_39">
      <g>
       <use xlink:href="#mb0e43a8833" x="337.698111" y="531.16" style="stroke: #000000; stroke-width: 0.8"/>
      </g>
     </g>
     <g id="text_43">
      <!-- 8 -->
      <g transform="translate(334.516861 545.758438) scale(0.1 -0.1)">
       <use xlink:href="#DejaVuSans-38"/>
      </g>
     </g>
    </g>
    <g id="text_44">
     <!-- $x$ [µm] -->
     <g transform="translate(186.133 559.438125) scale(0.1 -0.1)">
      <use xlink:href="#DejaVuSans-Oblique-78" transform="translate(0 0.015625)"/>
      <use xlink:href="#DejaVuSans-20" transform="translate(59.179688 0.015625)"/>
      <use xlink:href="#DejaVuSans-5b" transform="translate(90.966797 0.015625)"/>
      <use xlink:href="#DejaVuSans-b5" transform="translate(126.855469 0.015625)"/>
      <use xlink:href="#DejaVuSans-6d" transform="translate(190.478516 0.015625)"/>
      <use xlink:href="#DejaVuSans-5d" transform="translate(287.890625 0.015625)"/>
     </g>
    </g>
   </g>
   <g id="matplotlib.axis_6">
    <g id="ytick_11">
     <g id="line2d_40">
      <g>
       <use xlink:href="#m4298a44937" x="50.366" y="501.127273" style="stroke: #000000; stroke-width: 0.8"/>
      </g>
     </g>
     <g id="text_45">
      <!-- −4 -->
      <g transform="translate(28.623812 504.926491) scale(0.1 -0.1)">
       <use xlink:href="#DejaVuSans-2212"/>
       <use xlink:href="#DejaVuSans-34" x="83.789062"/>
      </g>
     </g>
    </g>
    <g id="ytick_12">
     <g id="line2d_41">
      <g>
       <use xlink:href="#m4298a44937" x="50.366" y="461.083636" style="stroke: #000000; stroke-width: 0.8"/>
      </g>
     </g>
     <g id="text_46">
      <!-- −2 -->
      <g transform="translate(28.623812 464.882855) scale(0.1 -0.1)">
       <use xlink:href="#DejaVuSans-2212"/>
       <use xlink:href="#DejaVuSans-32" x="83.789062"/>
      </g>
     </g>
    </g>
    <g id="ytick_13">
     <g id="line2d_42">
      <g>
       <use xlink:href="#m4298a44937" x="50.366" y="421.04" style="stroke: #000000; stroke-width: 0.8"/>
      </g>
     </g>
     <g id="text_47">
      <!-- 0 -->
      <g transform="translate(37.0035 424.839219) scale(0.1 -0.1)">
       <use xlink:href="#DejaVuSans-30"/>
      </g>
     </g>
    </g>
    <g id="ytick_14">
     <g id="line2d_43">
      <g>
       <use xlink:href="#m4298a44937" x="50.366" y="380.996364" style="stroke: #000000; stroke-width: 0.8"/>
      </g>
     </g>
     <g id="text_48">
      <!-- 2 -->
      <g transform="translate(37.0035 384.795582) scale(0.1 -0.1)">
       <use xlink:href="#DejaVuSans-32"/>
      </g>
     </g>
    </g>
    <g id="ytick_15">
     <g id="line2d_44">
      <g>
       <use xlink:href="#m4298a44937" x="50.366" y="340.952727" style="stroke: #000000; stroke-width: 0.8"/>
      </g>
     </g>
     <g id="text_49">
      <!-- 4 -->
      <g transform="translate(37.0035 344.751946) scale(0.1 -0.1)">
       <use xlink:href="#DejaVuSans-34"/>
      </g>
     </g>
    </g>
    <g id="text_50">
     <!-- $\Re\{H_y\}$ [µV/m] -->
     <g transform="translate(21.523812 455.94) rotate(-90) scale(0.1 -0.1)">
      <use xlink:href="#DejaVuSans-Oblique-211c" transform="translate(0 0.015625)"/>
      <use xlink:href="#DejaVuSans-7b" transform="translate(81.396484 0.015625)"/>
      <use xlink:href="#DejaVuSans-Oblique-48" transform="translate(145.019531 0.015625)"/>
      <use xlink:href="#DejaVuSans-Oblique-79" transform="translate(220.214844 -16.390625) scale(0.7)"/>
      <use xlink:href="#DejaVuSans-7d" transform="translate(264.375 0.015625)"/>
      <use xlink:href="#DejaVuSans-20" transform="translate(327.998047 0.015625)"/>
      <use xlink:href="#DejaVuSans-5b" transform="translate(359.785156 0.015625)"/>
      <use xlink:href="#DejaVuSans-b5" transform="translate(395.673828 0.015625)"/>
      <use xlink:href="#DejaVuSans-56" transform="translate(459.296875 0.015625)"/>
      <use xlink:href="#DejaVuSans-2f" transform="translate(527.705078 0.015625)"/>
      <use xlink:href="#DejaVuSans-6d" transform="translate(561.396484 0.015625)"/>
      <use xlink:href="#DejaVuSans-5d" transform="translate(658.808594 0.015625)"/>
     </g>
    </g>
   </g>
   <g id="line2d_45">
    <path d="M 50.366 421.04 
L 104.367535 420.955494 
L 105.381648 420.70587 
L 106.64929 420.095957 
L 107.409875 419.785165 
L 107.916932 419.826532 
L 108.423988 420.277126 
L 108.931045 421.347267 
L 109.438102 423.221503 
L 109.945158 425.98623 
L 110.705743 431.537947 
L 111.719857 439.06627 
L 112.226913 441.063588 
L 112.480442 441.201503 
L 112.73397 440.620347 
L 112.987498 439.23514 
L 113.494555 433.862783 
L 114.001612 425.088938 
L 114.762197 407.247409 
L 115.77631 383.051467 
L 116.283367 375.062263 
L 116.536895 372.797369 
L 116.790423 371.841868 
L 117.043952 372.241413 
L 117.29748 373.980415 
L 117.804537 381.115427 
L 118.565122 398.306683 
L 119.832763 428.469017 
L 120.33982 436.289258 
L 120.846877 440.542105 
L 121.100405 441.368999 
L 121.353933 441.423513 
L 121.607462 440.809325 
L 122.114518 438.065525 
L 124.142745 423.397224 
L 124.649802 421.439685 
L 125.156858 420.326869 
L 125.663915 419.862886 
L 126.170972 419.822197 
L 126.931557 420.135434 
L 128.199198 420.727431 
L 129.213312 420.958401 
L 130.734482 421.041979 
L 146.19971 421.040022 
L 257.24512 421.148779 
L 260.033932 421.412031 
L 260.540988 421.176515 
L 261.048045 420.698836 
L 261.555102 419.927039 
L 262.315687 418.224845 
L 263.583328 414.969623 
L 264.090385 414.262102 
L 264.343913 414.19779 
L 264.597442 414.376409 
L 264.85097 414.828043 
L 265.358027 416.617943 
L 265.865083 419.571385 
L 266.625668 425.614934 
L 267.639782 433.847431 
L 268.146838 436.571867 
L 268.400367 437.344963 
L 268.653895 437.671229 
L 268.907423 437.535174 
L 269.160952 436.942534 
L 269.668008 434.51012 
L 270.428593 428.655869 
L 271.696235 418.429264 
L 272.203292 415.801757 
L 272.710348 414.392882 
L 272.963877 414.130422 
L 273.217405 414.128921 
L 273.470933 414.352663 
L 273.97799 415.306654 
L 276.006217 420.266863 
L 276.766802 421.19984 
L 277.527387 421.723341 
L 278.287972 422.17769 
L 278.795028 423.002503 
L 279.048557 423.449436 
L 279.302085 423.619658 
L 279.555613 423.166042 
L 279.809142 421.691645 
L 280.06267 418.84902 
L 280.569727 408.773643 
L 281.330312 392.261737 
L 281.58384 391.541191 
L 281.837368 395.430027 
L 282.090897 404.4408 
L 282.597953 434.918577 
L 283.10501 468.241836 
L 283.358538 479.491735 
L 283.612067 484.502561 
L 283.865595 482.614654 
L 284.119123 474.40359 
L 285.640293 401.14685 
L 285.893822 398.779188 
L 286.14735 399.472849 
L 286.654407 406.114601 
L 287.414992 416.938051 
L 287.922048 420.561449 
L 288.175577 421.371817 
L 288.429105 421.736294 
L 288.682633 421.816583 
L 289.18969 421.601344 
L 289.950275 421.22162 
L 290.71086 421.07648 
L 292.739087 421.040265 
L 354.6 421.04 
L 354.6 421.04 
" clip-path="url(#p7f46a37af1)" style="fill: none; stroke: #ffa500; stroke-width: 1.5; stroke-linecap: square"/>
   </g>
   <g id="LineCollection_3">
    <path d="M 278.5415 521.149091 
L 278.5415 320.930909 
" clip-path="url(#p7f46a37af1)" style="fill: none; stroke-dasharray: 5.55,2.4; stroke-dashoffset: 0; stroke: #000000; stroke-width: 1.5"/>
   </g>
   <g id="patch_13">
    <path d="M 50.366 531.16 
L 50.366 310.92 
" style="fill: none; stroke: #000000; stroke-width: 0.8; stroke-linejoin: miter; stroke-linecap: square"/>
   </g>
   <g id="patch_14">
    <path d="M 354.6 531.16 
L 354.6 310.92 
" style="fill: none; stroke: #000000; stroke-width: 0.8; stroke-linejoin: miter; stroke-linecap: square"/>
   </g>
   <g id="patch_15">
    <path d="M 50.366 531.16 
L 354.6 531.16 
" style="fill: none; stroke: #000000; stroke-width: 0.8; stroke-linejoin: miter; stroke-linecap: square"/>
   </g>
   <g id="patch_16">
    <path d="M 50.366 310.92 
L 354.6 310.92 
" style="fill: none; stroke: #000000; stroke-width: 0.8; stroke-linejoin: miter; stroke-linecap: square"/>
   </g>
   <g id="text_51">
    <!-- Magnetic field at $ct = 6.00$µm, i=800 -->
    <g transform="translate(92.263 304.92) scale(0.12 -0.12)">
     <use xlink:href="#DejaVuSans-4d" transform="translate(0 0.015625)"/>
     <use xlink:href="#DejaVuSans-61" transform="translate(86.279297 0.015625)"/>
     <use xlink:href="#DejaVuSans-67" transform="translate(147.558594 0.015625)"/>
     <use xlink:href="#DejaVuSans-6e" transform="translate(211.035156 0.015625)"/>
     <use xlink:href="#DejaVuSans-65" transform="translate(274.414062 0.015625)"/>
     <use xlink:href="#DejaVuSans-74" transform="translate(335.9375 0.015625)"/>
     <use xlink:href="#DejaVuSans-69" transform="translate(375.146484 0.015625)"/>
     <use xlink:href="#DejaVuSans-63" transform="translate(402.929688 0.015625)"/>
     <use xlink:href="#DejaVuSans-20" transform="translate(457.910156 0.015625)"/>
     <use xlink:href="#DejaVuSans-66" transform="translate(489.697266 0.015625)"/>
     <use xlink:href="#DejaVuSans-69" transform="translate(524.902344 0.015625)"/>
     <use xlink:href="#DejaVuSans-65" transform="translate(552.685547 0.015625)"/>
     <use xlink:href="#DejaVuSans-6c" transform="translate(614.208984 0.015625)"/>
     <use xlink:href="#DejaVuSans-64" transform="translate(641.992188 0.015625)"/>
     <use xlink:href="#DejaVuSans-20" transform="translate(705.46875 0.015625)"/>
     <use xlink:href="#DejaVuSans-61" transform="translate(737.255859 0.015625)"/>
     <use xlink:href="#DejaVuSans-74" transform="translate(798.535156 0.015625)"/>
     <use xlink:href="#DejaVuSans-20" transform="translate(837.744141 0.015625)"/>
     <use xlink:href="#DejaVuSans-Oblique-63" transform="translate(869.53125 0.015625)"/>
     <use xlink:href="#DejaVuSans-Oblique-74" transform="translate(924.511719 0.015625)"/>
     <use xlink:href="#DejaVuSans-3d" transform="translate(983.203125 0.015625)"/>
     <use xlink:href="#DejaVuSans-36" transform="translate(1086.474609 0.015625)"/>
     <use xlink:href="#DejaVuSans-2e" transform="translate(1150.097656 0.015625)"/>
     <use xlink:href="#DejaVuSans-30" transform="translate(1181.884766 0.015625)"/>
     <use xlink:href="#DejaVuSans-30" transform="translate(1245.507812 0.015625)"/>
     <use xlink:href="#DejaVuSans-b5" transform="translate(1309.130859 0.015625)"/>
     <use xlink:href="#DejaVuSans-6d" transform="translate(1372.753906 0.015625)"/>
     <use xlink:href="#DejaVuSans-2c" transform="translate(1470.166016 0.015625)"/>
     <use xlink:href="#DejaVuSans-20" transform="translate(1501.953125 0.015625)"/>
     <use xlink:href="#DejaVuSans-69" transform="translate(1533.740234 0.015625)"/>
     <use xlink:href="#DejaVuSans-3d" transform="translate(1561.523438 0.015625)"/>
     <use xlink:href="#DejaVuSans-38" transform="translate(1645.3125 0.015625)"/>
     <use xlink:href="#DejaVuSans-30" transform="translate(1708.935547 0.015625)"/>
     <use xlink:href="#DejaVuSans-30" transform="translate(1772.558594 0.015625)"/>
    </g>
   </g>
  </g>
  <g id="axes_4">
   <g id="patch_17">
    <path d="M 404.966 531.16 
L 709.2 531.16 
L 709.2 310.92 
L 404.966 310.92 
z
" style="fill: #ffffff"/>
   </g>
   <g id="matplotlib.axis_7">
    <g id="xtick_28">
     <g id="line2d_46">
      <g>
       <use xlink:href="#mb0e43a8833" x="421.867889" y="531.16" style="stroke: #000000; stroke-width: 0.8"/>
      </g>
     </g>
     <g id="text_52">
      <!-- −8 -->
      <g transform="translate(414.496795 545.758438) scale(0.1 -0.1)">
       <use xlink:href="#DejaVuSans-2212"/>
       <use xlink:href="#DejaVuSans-38" x="83.789062"/>
      </g>
     </g>
    </g>
    <g id="xtick_29">
     <g id="line2d_47">
      <g>
       <use xlink:href="#mb0e43a8833" x="455.671667" y="531.16" style="stroke: #000000; stroke-width: 0.8"/>
      </g>
     </g>
     <g id="text_53">
      <!-- −6 -->
      <g transform="translate(448.300573 545.758438) scale(0.1 -0.1)">
       <use xlink:href="#DejaVuSans-2212"/>
       <use xlink:href="#DejaVuSans-36" x="83.789062"/>
      </g>
     </g>
    </g>
    <g id="xtick_30">
     <g id="line2d_48">
      <g>
       <use xlink:href="#mb0e43a8833" x="489.475444" y="531.16" style="stroke: #000000; stroke-width: 0.8"/>
      </g>
     </g>
     <g id="text_54">
      <!-- −4 -->
      <g transform="translate(482.104351 545.758438) scale(0.1 -0.1)">
       <use xlink:href="#DejaVuSans-2212"/>
       <use xlink:href="#DejaVuSans-34" x="83.789062"/>
      </g>
     </g>
    </g>
    <g id="xtick_31">
     <g id="line2d_49">
      <g>
       <use xlink:href="#mb0e43a8833" x="523.279222" y="531.16" style="stroke: #000000; stroke-width: 0.8"/>
      </g>
     </g>
     <g id="text_55">
      <!-- −2 -->
      <g transform="translate(515.908128 545.758438) scale(0.1 -0.1)">
       <use xlink:href="#DejaVuSans-2212"/>
       <use xlink:href="#DejaVuSans-32" x="83.789062"/>
      </g>
     </g>
    </g>
    <g id="xtick_32">
     <g id="line2d_50">
      <g>
       <use xlink:href="#mb0e43a8833" x="557.083" y="531.16" style="stroke: #000000; stroke-width: 0.8"/>
      </g>
     </g>
     <g id="text_56">
      <!-- 0 -->
      <g transform="translate(553.90175 545.758438) scale(0.1 -0.1)">
       <use xlink:href="#DejaVuSans-30"/>
      </g>
     </g>
    </g>
    <g id="xtick_33">
     <g id="line2d_51">
      <g>
       <use xlink:href="#mb0e43a8833" x="590.886778" y="531.16" style="stroke: #000000; stroke-width: 0.8"/>
      </g>
     </g>
     <g id="text_57">
      <!-- 2 -->
      <g transform="translate(587.705528 545.758438) scale(0.1 -0.1)">
       <use xlink:href="#DejaVuSans-32"/>
      </g>
     </g>
    </g>
    <g id="xtick_34">
     <g id="line2d_52">
      <g>
       <use xlink:href="#mb0e43a8833" x="624.690556" y="531.16" style="stroke: #000000; stroke-width: 0.8"/>
      </g>
     </g>
     <g id="text_58">
      <!-- 4 -->
      <g transform="translate(621.509306 545.758438) scale(0.1 -0.1)">
       <use xlink:href="#DejaVuSans-34"/>
      </g>
     </g>
    </g>
    <g id="xtick_35">
     <g id="line2d_53">
      <g>
       <use xlink:href="#mb0e43a8833" x="658.494333" y="531.16" style="stroke: #000000; stroke-width: 0.8"/>
      </g>
     </g>
     <g id="text_59">
      <!-- 6 -->
      <g transform="translate(655.313083 545.758438) scale(0.1 -0.1)">
       <use xlink:href="#DejaVuSans-36"/>
      </g>
     </g>
    </g>
    <g id="xtick_36">
     <g id="line2d_54">
      <g>
       <use xlink:href="#mb0e43a8833" x="692.298111" y="531.16" style="stroke: #000000; stroke-width: 0.8"/>
      </g>
     </g>
     <g id="text_60">
      <!-- 8 -->
      <g transform="translate(689.116861 545.758438) scale(0.1 -0.1)">
       <use xlink:href="#DejaVuSans-38"/>
      </g>
     </g>
    </g>
    <g id="text_61">
     <!-- $x$ [µm] -->
     <g transform="translate(540.733 559.438125) scale(0.1 -0.1)">
      <use xlink:href="#DejaVuSans-Oblique-78" transform="translate(0 0.015625)"/>
      <use xlink:href="#DejaVuSans-20" transform="translate(59.179688 0.015625)"/>
      <use xlink:href="#DejaVuSans-5b" transform="translate(90.966797 0.015625)"/>
      <use xlink:href="#DejaVuSans-b5" transform="translate(126.855469 0.015625)"/>
      <use xlink:href="#DejaVuSans-6d" transform="translate(190.478516 0.015625)"/>
      <use xlink:href="#DejaVuSans-5d" transform="translate(287.890625 0.015625)"/>
     </g>
    </g>
   </g>
   <g id="matplotlib.axis_8">
    <g id="ytick_16">
     <g id="line2d_55">
      <g>
       <use xlink:href="#m4298a44937" x="404.966" y="501.127273" style="stroke: #000000; stroke-width: 0.8"/>
      </g>
     </g>
     <g id="text_62">
      <!-- −4 -->
      <g transform="translate(383.223813 504.926491) scale(0.1 -0.1)">
       <use xlink:href="#DejaVuSans-2212"/>
       <use xlink:href="#DejaVuSans-34" x="83.789062"/>
      </g>
     </g>
    </g>
    <g id="ytick_17">
     <g id="line2d_56">
      <g>
       <use xlink:href="#m4298a44937" x="404.966" y="461.083636" style="stroke: #000000; stroke-width: 0.8"/>
      </g>
     </g>
     <g id="text_63">
      <!-- −2 -->
      <g transform="translate(383.223813 464.882855) scale(0.1 -0.1)">
       <use xlink:href="#DejaVuSans-2212"/>
       <use xlink:href="#DejaVuSans-32" x="83.789062"/>
      </g>
     </g>
    </g>
    <g id="ytick_18">
     <g id="line2d_57">
      <g>
       <use xlink:href="#m4298a44937" x="404.966" y="421.04" style="stroke: #000000; stroke-width: 0.8"/>
      </g>
     </g>
     <g id="text_64">
      <!-- 0 -->
      <g transform="translate(391.6035 424.839219) scale(0.1 -0.1)">
       <use xlink:href="#DejaVuSans-30"/>
      </g>
     </g>
    </g>
    <g id="ytick_19">
     <g id="line2d_58">
      <g>
       <use xlink:href="#m4298a44937" x="404.966" y="380.996364" style="stroke: #000000; stroke-width: 0.8"/>
      </g>
     </g>
     <g id="text_65">
      <!-- 2 -->
      <g transform="translate(391.6035 384.795582) scale(0.1 -0.1)">
       <use xlink:href="#DejaVuSans-32"/>
      </g>
     </g>
    </g>
    <g id="ytick_20">
     <g id="line2d_59">
      <g>
       <use xlink:href="#m4298a44937" x="404.966" y="340.952727" style="stroke: #000000; stroke-width: 0.8"/>
      </g>
     </g>
     <g id="text_66">
      <!-- 4 -->
      <g transform="translate(391.6035 344.751946) scale(0.1 -0.1)">
       <use xlink:href="#DejaVuSans-34"/>
      </g>
     </g>
    </g>
    <g id="text_67">
     <!-- $\Re\{H_y\}$ [µV/m] -->
     <g transform="translate(376.123812 455.94) rotate(-90) scale(0.1 -0.1)">
      <use xlink:href="#DejaVuSans-Oblique-211c" transform="translate(0 0.015625)"/>
      <use xlink:href="#DejaVuSans-7b" transform="translate(81.396484 0.015625)"/>
      <use xlink:href="#DejaVuSans-Oblique-48" transform="translate(145.019531 0.015625)"/>
      <use xlink:href="#DejaVuSans-Oblique-79" transform="translate(220.214844 -16.390625) scale(0.7)"/>
      <use xlink:href="#DejaVuSans-7d" transform="translate(264.375 0.015625)"/>
      <use xlink:href="#DejaVuSans-20" transform="translate(327.998047 0.015625)"/>
      <use xlink:href="#DejaVuSans-5b" transform="translate(359.785156 0.015625)"/>
      <use xlink:href="#DejaVuSans-b5" transform="translate(395.673828 0.015625)"/>
      <use xlink:href="#DejaVuSans-56" transform="translate(459.296875 0.015625)"/>
      <use xlink:href="#DejaVuSans-2f" transform="translate(527.705078 0.015625)"/>
      <use xlink:href="#DejaVuSans-6d" transform="translate(561.396484 0.015625)"/>
      <use xlink:href="#DejaVuSans-5d" transform="translate(658.808594 0.015625)"/>
     </g>
    </g>
   </g>
   <g id="line2d_60">
    <path d="M 404.966 430.121266 
L 405.219528 431.388616 
L 405.473057 431.121064 
L 405.726585 429.400892 
L 406.233642 422.20932 
L 408.00834 387.259685 
L 408.261868 385.093469 
L 408.515397 384.255451 
L 408.768925 384.783081 
L 409.022453 386.636444 
L 409.52951 393.81281 
L 410.290095 410.032026 
L 411.304208 431.143269 
L 411.811265 437.828886 
L 412.318322 441.031945 
L 412.57185 441.382868 
L 412.825378 441.00624 
L 413.078907 440.014912 
L 413.585963 436.705883 
L 415.107133 424.771219 
L 415.61419 422.179244 
L 416.121247 420.570354 
L 416.628303 419.789421 
L 417.13536 419.596753 
L 417.642417 419.748821 
L 419.670643 420.817582 
L 420.684757 421.002695 
L 422.712983 421.046354 
L 448.572873 421.039984 
L 548.463037 421.148673 
L 550.99832 421.39657 
L 551.505377 421.252691 
L 552.012433 420.91989 
L 552.51949 420.340546 
L 553.026547 419.483542 
L 553.787132 417.74126 
L 554.801245 415.289781 
L 555.308302 414.565752 
L 555.56183 414.463267 
L 555.815358 414.583041 
L 556.068887 414.955491 
L 556.575943 416.538566 
L 557.083 419.255256 
L 557.843585 425.009137 
L 559.111227 434.880721 
L 559.618283 437.103068 
L 559.871812 437.590118 
L 560.12534 437.620816 
L 560.378868 437.190466 
L 560.632397 436.315158 
L 561.139453 433.395021 
L 561.900038 427.118282 
L 562.914152 418.748817 
L 563.421208 415.864082 
L 563.928265 414.23141 
L 564.181793 413.884752 
L 564.435322 413.822823 
L 564.68885 414.010653 
L 565.195907 414.961899 
L 567.477662 420.69499 
L 567.984718 421.230649 
L 568.491775 421.482597 
L 569.25236 421.516521 
L 572.801757 421.045074 
L 580.407607 421.040013 
L 663.057843 420.977459 
L 663.818428 420.762674 
L 664.071957 420.829712 
L 664.325485 421.140306 
L 664.579013 421.81047 
L 665.08607 424.244015 
L 665.339598 425.556162 
L 665.593127 426.249278 
L 665.846655 425.608091 
L 666.100183 422.962598 
L 666.60724 410.741812 
L 667.367825 387.844401 
L 667.621353 385.801614 
L 667.874882 389.191052 
L 668.12841 398.422639 
L 668.635467 430.320718 
L 669.142523 464.772056 
L 669.396052 476.496006 
L 669.64958 482.211913 
L 669.903108 481.466597 
L 670.156637 474.889536 
L 670.663693 450.618904 
L 671.424278 414.506922 
L 671.677807 407.643156 
L 671.931335 403.874336 
L 672.184863 402.79759 
L 672.438392 403.761991 
L 672.945448 408.951059 
L 673.706033 416.978723 
L 674.21309 419.92803 
L 674.720147 421.158064 
L 674.973675 421.371529 
L 675.480732 421.415466 
L 677.25543 421.074629 
L 679.790713 421.040134 
L 709.2 421.04 
L 709.2 421.04 
" clip-path="url(#p7e773547fb)" style="fill: none; stroke: #ffa500; stroke-width: 1.5; stroke-linecap: square"/>
   </g>
   <g id="LineCollection_4">
    <path d="M 633.1415 521.149091 
L 633.1415 320.930909 
" clip-path="url(#p7e773547fb)" style="fill: none; stroke-dasharray: 5.55,2.4; stroke-dashoffset: 0; stroke: #000000; stroke-width: 1.5"/>
   </g>
   <g id="patch_18">
    <path d="M 404.966 531.16 
L 404.966 310.92 
" style="fill: none; stroke: #000000; stroke-width: 0.8; stroke-linejoin: miter; stroke-linecap: square"/>
   </g>
   <g id="patch_19">
    <path d="M 709.2 531.16 
L 709.2 310.92 
" style="fill: none; stroke: #000000; stroke-width: 0.8; stroke-linejoin: miter; stroke-linecap: square"/>
   </g>
   <g id="patch_20">
    <path d="M 404.966 531.16 
L 709.2 531.16 
" style="fill: none; stroke: #000000; stroke-width: 0.8; stroke-linejoin: miter; stroke-linecap: square"/>
   </g>
   <g id="patch_21">
    <path d="M 404.966 310.92 
L 709.2 310.92 
" style="fill: none; stroke: #000000; stroke-width: 0.8; stroke-linejoin: miter; stroke-linecap: square"/>
   </g>
   <g id="text_68">
    <!-- Magnetic field at $ct = 9.75$µm, i=1300 -->
    <g transform="translate(443.503 304.92) scale(0.12 -0.12)">
     <defs>
      <path id="DejaVuSans-39" d="M 703 97 
L 703 672 
Q 941 559 1184 500 
Q 1428 441 1663 441 
Q 2288 441 2617 861 
Q 2947 1281 2994 2138 
Q 2813 1869 2534 1725 
Q 2256 1581 1919 1581 
Q 1219 1581 811 2004 
Q 403 2428 403 3163 
Q 403 3881 828 4315 
Q 1253 4750 1959 4750 
Q 2769 4750 3195 4129 
Q 3622 3509 3622 2328 
Q 3622 1225 3098 567 
Q 2575 -91 1691 -91 
Q 1453 -91 1209 -44 
Q 966 3 703 97 
z
M 1959 2075 
Q 2384 2075 2632 2365 
Q 2881 2656 2881 3163 
Q 2881 3666 2632 3958 
Q 2384 4250 1959 4250 
Q 1534 4250 1286 3958 
Q 1038 3666 1038 3163 
Q 1038 2656 1286 2365 
Q 1534 2075 1959 2075 
z
" transform="scale(0.015625)"/>
      <path id="DejaVuSans-37" d="M 525 4666 
L 3525 4666 
L 3525 4397 
L 1831 0 
L 1172 0 
L 2766 4134 
L 525 4134 
L 525 4666 
z
" transform="scale(0.015625)"/>
     </defs>
     <use xlink:href="#DejaVuSans-4d" transform="translate(0 0.015625)"/>
     <use xlink:href="#DejaVuSans-61" transform="translate(86.279297 0.015625)"/>
     <use xlink:href="#DejaVuSans-67" transform="translate(147.558594 0.015625)"/>
     <use xlink:href="#DejaVuSans-6e" transform="translate(211.035156 0.015625)"/>
     <use xlink:href="#DejaVuSans-65" transform="translate(274.414062 0.015625)"/>
     <use xlink:href="#DejaVuSans-74" transform="translate(335.9375 0.015625)"/>
     <use xlink:href="#DejaVuSans-69" transform="translate(375.146484 0.015625)"/>
     <use xlink:href="#DejaVuSans-63" transform="translate(402.929688 0.015625)"/>
     <use xlink:href="#DejaVuSans-20" transform="translate(457.910156 0.015625)"/>
     <use xlink:href="#DejaVuSans-66" transform="translate(489.697266 0.015625)"/>
     <use xlink:href="#DejaVuSans-69" transform="translate(524.902344 0.015625)"/>
     <use xlink:href="#DejaVuSans-65" transform="translate(552.685547 0.015625)"/>
     <use xlink:href="#DejaVuSans-6c" transform="translate(614.208984 0.015625)"/>
     <use xlink:href="#DejaVuSans-64" transform="translate(641.992188 0.015625)"/>
     <use xlink:href="#DejaVuSans-20" transform="translate(705.46875 0.015625)"/>
     <use xlink:href="#DejaVuSans-61" transform="translate(737.255859 0.015625)"/>
     <use xlink:href="#DejaVuSans-74" transform="translate(798.535156 0.015625)"/>
     <use xlink:href="#DejaVuSans-20" transform="translate(837.744141 0.015625)"/>
     <use xlink:href="#DejaVuSans-Oblique-63" transform="translate(869.53125 0.015625)"/>
     <use xlink:href="#DejaVuSans-Oblique-74" transform="translate(924.511719 0.015625)"/>
     <use xlink:href="#DejaVuSans-3d" transform="translate(983.203125 0.015625)"/>
     <use xlink:href="#DejaVuSans-39" transform="translate(1086.474609 0.015625)"/>
     <use xlink:href="#DejaVuSans-2e" transform="translate(1150.097656 0.015625)"/>
     <use xlink:href="#DejaVuSans-37" transform="translate(1174.134766 0.015625)"/>
     <use xlink:href="#DejaVuSans-35" transform="translate(1237.757812 0.015625)"/>
     <use xlink:href="#DejaVuSans-b5" transform="translate(1301.380859 0.015625)"/>
     <use xlink:href="#DejaVuSans-6d" transform="translate(1365.003906 0.015625)"/>
     <use xlink:href="#DejaVuSans-2c" transform="translate(1462.416016 0.015625)"/>
     <use xlink:href="#DejaVuSans-20" transform="translate(1494.203125 0.015625)"/>
     <use xlink:href="#DejaVuSans-69" transform="translate(1525.990234 0.015625)"/>
     <use xlink:href="#DejaVuSans-3d" transform="translate(1553.773438 0.015625)"/>
     <use xlink:href="#DejaVuSans-31" transform="translate(1637.5625 0.015625)"/>
     <use xlink:href="#DejaVuSans-33" transform="translate(1701.185547 0.015625)"/>
     <use xlink:href="#DejaVuSans-30" transform="translate(1764.808594 0.015625)"/>
     <use xlink:href="#DejaVuSans-30" transform="translate(1828.431641 0.015625)"/>
    </g>
   </g>
  </g>
 </g>
 <defs>
  <clipPath id="p15872e04ca">
   <rect x="50.366" y="28.32" width="304.234" height="220.24"/>
  </clipPath>
  <clipPath id="p24aac24b8d">
   <rect x="404.966" y="28.32" width="304.234" height="220.24"/>
  </clipPath>
  <clipPath id="p7f46a37af1">
   <rect x="50.366" y="310.92" width="304.234" height="220.24"/>
  </clipPath>
  <clipPath id="p7e773547fb">
   <rect x="404.966" y="310.92" width="304.234" height="220.24"/>
  </clipPath>
 </defs>
</svg>
